<svg width="56" height="55" viewBox="0 0 56 55" fill="none" xmlns="http://www.w3.org/2000/svg">
<path d="M53.71 11.5348C55.1774 13.0031 56.0017 14.994 56.0017 17.0698C56.0017 19.1457 55.1774 21.1366 53.71 22.6048L43.12 33.1948C42.5489 33.7401 41.7896 34.0444 41 34.0444C40.2104 34.0444 39.4511 33.7401 38.88 33.1948C38.3182 32.6323 38.0026 31.8698 38.0026 31.0748C38.0026 30.2798 38.3182 29.5173 38.88 28.9548L47.76 20.0748H20C16.287 20.0748 12.726 21.5498 10.1005 24.1753C7.47499 26.8008 6 30.3618 6 34.0748C6 37.7879 7.47499 41.3488 10.1005 43.9743C12.726 46.5998 16.287 48.0748 20 48.0748H49C49.7956 48.0748 50.5587 48.3909 51.1213 48.9535C51.6839 49.5161 52 50.2792 52 51.0748C52 51.8705 51.6839 52.6335 51.1213 53.1962C50.5587 53.7588 49.7956 54.0748 49 54.0748H20C14.6957 54.0748 9.60859 51.9677 5.85786 48.217C2.10714 44.4662 0 39.3792 0 34.0748C0 28.7705 2.10714 23.6834 5.85786 19.9327C9.60859 16.182 14.6957 14.0748 20 14.0748H47.76L38.88 5.19483C38.5853 4.92018 38.3488 4.58898 38.1849 4.22098C38.0209 3.85299 37.9327 3.45573 37.9256 3.05292C37.9185 2.65011 37.9926 2.24999 38.1435 1.87644C38.2944 1.50289 38.519 1.16355 38.8038 0.878679C39.0887 0.593804 39.4281 0.369225 39.8016 0.218341C40.1752 0.0674573 40.5753 -0.00664025 40.9781 0.00046689C41.3809 0.00757403 41.7782 0.0957401 42.1462 0.259708C42.5141 0.423676 42.8454 0.660084 43.12 0.954832L53.71 11.5348Z" fill="black"/>
</svg>
