<svg width="24" height="23" viewBox="0 0 56 55" fill="none" xmlns="http://www.w3.org/2000/svg">
<path d="M2.29 12.46C0.822598 13.9283 -0.00170898 15.9192 -0.00170898 17.995C-0.00170898 20.0708 0.822598 22.0617 2.29 23.53L12.88 34.12C13.4511 34.6653 14.2104 34.9695 15 34.9695C15.7896 34.9695 16.5489 34.6653 17.12 34.12C17.6818 33.5575 17.9974 32.795 17.9974 32C17.9974 31.205 17.6818 30.4425 17.12 29.88L8.24 21H36C39.713 21 43.274 22.475 45.8995 25.1005C48.525 27.726 50 31.287 50 35C50 38.713 48.525 42.274 45.8995 44.8995C43.274 47.525 39.713 49 36 49H7C6.20435 49 5.44129 49.3161 4.87868 49.8787C4.31607 50.4413 4 51.2044 4 52C4 52.7957 4.31607 53.5587 4.87868 54.1213C5.44129 54.6839 6.20435 55 7 55H36C41.3043 55 46.3914 52.8929 50.1421 49.1421C53.8929 45.3914 56 40.3043 56 35C56 29.6957 53.8929 24.6086 50.1421 20.8579C46.3914 17.1071 41.3043 15 36 15H8.24L17.12 6.12C17.4147 5.84536 17.6512 5.51415 17.8151 5.14616C17.9791 4.77816 18.0673 4.38091 18.0744 3.97809C18.0815 3.57528 18.0074 3.17517 17.8565 2.80161C17.7056 2.42806 17.481 2.08872 17.1962 1.80385C16.9113 1.51897 16.5719 1.2944 16.1984 1.14351C15.8248 0.992628 15.4247 0.918531 15.0219 0.925638C14.6191 0.932745 14.2218 1.02091 13.8538 1.18488C13.4859 1.34885 13.1546 1.58526 12.88 1.88L2.29 12.46Z" fill="black"/>
</svg>
